<svg width="495" height="357" viewBox="0 0 495 357" fill="none" xmlns="http://www.w3.org/2000/svg">
<path d="M11.655 247.836C11.655 247.836 109.09 188.923 128.006 164.651C155.339 129.581 160.018 103.942 191.68 88.0956C213.376 77.239 289.358 67.5615 305.068 56.9871C320.778 46.4155 329.178 41.1071 344.882 35.2996C373.913 26.1423 385.791 44.9684 364.644 59.1222C349.391 69.3324 341.187 73.7751 327.539 80.2963C320.257 83.7754 300.234 93.3425 300.27 96.4851C300.306 99.6277 334.371 94.8992 352.084 90.9272C369.795 86.9579 404.223 71.2229 415.925 58.9887C427.626 46.7545 463.002 8.74823 474.287 2.04543C485.573 -4.65736 501.001 6.03161 492.591 20.8146C488.14 28.6368 450.421 76.3725 431.689 92.3805C412.957 108.388 364.15 139.514 333.676 156.093C303.201 172.67 226.94 177.23 200.029 208.613C173.118 239.996 72.0795 356.192 72.0795 356.192C46.7282 358.359 20.5149 342.575 9.64351 318.505C-13.1718 267.988 11.655 247.836 11.655 247.836Z" fill="url(#paint0_linear_225_5429)" style="mix-blend-mode:screen"/>
<defs>
<linearGradient id="paint0_linear_225_5429" x1="-10.083" y1="322.197" x2="526.138" y2="198.133" gradientUnits="userSpaceOnUse">
<stop stop-color="#131515" stop-opacity="0"/>
<stop offset="0.27" stop-color="#116076" stop-opacity="0.563735"/>
<stop offset="0.495" stop-color="#109AC1"/>
<stop offset="0.625" stop-color="#6FDCFA"/>
<stop offset="0.835" stop-color="#6FDCFA"/>
<stop offset="0.99" stop-color="#CBF2FD"/>
</linearGradient>
</defs>
</svg>
