<svg width="40" height="36" viewBox="0 0 40 36" fill="none" xmlns="http://www.w3.org/2000/svg">
<path d="M2 36C0.895431 36 0 35.1046 0 34V2C0 0.895431 0.895431 0 2 0H18C19.1046 0 20 0.895431 20 2V8H38C39.1046 8 40 8.89543 40 10V34C40 35.1046 39.1046 36 38 36H2ZM4 32H8V28H4V32ZM4 24H8V20H4V24ZM4 16H8V12H4V16ZM4 8H8V4H4V8ZM12 32H16V28H12V32ZM12 24H16V20H12V24ZM12 16H16V12H12V16ZM12 8H16V4H12V8ZM20 32H36V12H20V16H24V20H20V24H24V28H20V32ZM28 20V16H32V20H28ZM28 28V24H32V28H28Z" fill="#6FDCFA"/>
</svg>
