<svg width="36" height="36" viewBox="0 0 36 36" fill="none" xmlns="http://www.w3.org/2000/svg">
<path fill-rule="evenodd" clip-rule="evenodd" d="M0 36V32H4V4C4 2.86667 4.39167 1.91667 5.175 1.15C5.95833 0.383333 6.9 0 8 0H28C29.1333 0 30.0833 0.383333 30.85 1.15C31.6167 1.91667 32 2.86667 32 4V32H36V36H0ZM20 7.75V30L8 32V4L18.4 5.7C18.8667 5.76667 19.25 6 19.55 6.4C19.85 6.8 20 7.25 20 7.75ZM16 20C16.5667 20 17.0417 19.8083 17.425 19.425C17.8083 19.0417 18 18.5667 18 18C18 17.4333 17.8083 16.9583 17.425 16.575C17.0417 16.1917 16.5667 16 16 16C15.4333 16 14.9583 16.1917 14.575 16.575C14.1917 16.9583 14 17.4333 14 18C14 18.5667 14.1917 19.0417 14.575 19.425C14.9583 19.8083 15.4333 20 16 20Z" fill="white"/>
</svg>
