<svg width="36" height="36" viewBox="0 0 36 36" fill="none" xmlns="http://www.w3.org/2000/svg">
<path d="M36 36V32H32V4C32 2.9 31.608 1.958 30.824 1.174C30.0413 0.391333 29.1 0 28 0H8C6.9 0 5.958 0.391333 5.174 1.174C4.39133 1.958 4 2.9 4 4V32H0V36H36ZM28 32H8V4H28V32Z" fill="#404759"/>
<path d="M24.248 20.1162C23.6653 20.7002 22.9573 20.9922 22.124 20.9922C21.2907 20.9922 20.5827 20.7002 20 20.1162C19.416 19.5335 19.124 18.8255 19.124 17.9922C19.124 17.1588 19.416 16.4508 20 15.8682C20.5827 15.2842 21.2907 14.9922 22.124 14.9922C22.9573 14.9922 23.6653 15.2842 24.248 15.8682C24.832 16.4508 25.124 17.1588 25.124 17.9922C25.124 18.8255 24.832 19.5335 24.248 20.1162Z" fill="#404759"/>
</svg>
