<svg width="23" height="32" viewBox="0 0 23 32" fill="none" xmlns="http://www.w3.org/2000/svg">
<path d="M2.82353 32.0001C2.03922 32.0001 1.37287 31.7252 0.824473 31.1756C0.274824 30.6272 0 29.9608 0 29.1765V14.1177C0 13.3334 0.274824 12.667 0.824473 12.1186C1.37287 11.569 2.03922 11.2941 2.82353 11.2941H3.76471V7.52943C3.76471 5.4375 4.49695 3.65993 5.96142 2.19671C7.42464 0.732237 9.20221 0 11.2941 0C13.3861 0 15.1636 0.732237 16.6269 2.19671C18.0913 3.65993 18.8236 5.4375 18.8236 7.52943V11.2941H19.7647C20.5491 11.2941 21.2154 11.569 21.7638 12.1186C22.3135 12.667 22.5883 13.3334 22.5883 14.1177V29.1765C22.5883 29.9608 22.3135 30.6272 21.7638 31.1756C21.2154 31.7252 20.5491 32.0001 19.7647 32.0001H2.82353ZM2.82353 29.1765H19.7647V14.1177H2.82353V29.1765ZM11.2941 24.4706C12.0785 24.4706 12.7448 24.1958 13.2932 23.6462C13.8429 23.0978 14.1177 22.4314 14.1177 21.6471C14.1177 20.8628 13.8429 20.1964 13.2932 19.648C12.7448 19.0984 12.0785 18.8236 11.2941 18.8236C10.5098 18.8236 9.84347 19.0984 9.29508 19.648C8.74543 20.1964 8.4706 20.8628 8.4706 21.6471C8.4706 22.4314 8.74543 23.0978 9.29508 23.6462C9.84347 24.1958 10.5098 24.4706 11.2941 24.4706ZM6.58825 11.2941H16V7.52943C16 6.22182 15.5426 5.1106 14.6278 4.19577C13.713 3.28095 12.6017 2.82353 11.2941 2.82353C9.98653 2.82353 8.87531 3.28095 7.96049 4.19577C7.04566 5.1106 6.58825 6.22182 6.58825 7.52943V11.2941Z" fill="white"/>
</svg>
