<svg width="24" height="24" viewBox="0 0 24 24" fill="none" xmlns="http://www.w3.org/2000/svg">
<g id="emergency-home">
<g id="Icon">
<path d="M13.0003 13H11.0003V7H13.0003V13Z" fill="white"/>
<path d="M12.7133 15.712C12.5213 15.904 12.2836 16 12.0003 16C11.7169 16 11.4796 15.904 11.2883 15.712C11.0963 15.5207 11.0003 15.2833 11.0003 15C11.0003 14.7167 11.0963 14.479 11.2883 14.287C11.4796 14.0957 11.7169 14 12.0003 14C12.2836 14 12.5213 14.0957 12.7133 14.287C12.9046 14.479 13.0003 14.7167 13.0003 15C13.0003 15.2833 12.9046 15.5207 12.7133 15.712Z" fill="white"/>
<path fill-rule="evenodd" clip-rule="evenodd" d="M22.586 10.5857L13.4144 1.41416C12.6334 0.633107 11.367 0.633107 10.586 1.41416L1.4144 10.5857C0.633351 11.3668 0.633351 12.6331 1.4144 13.4142L10.586 22.5857C11.367 23.3668 12.6334 23.3668 13.4144 22.5857L22.586 13.4142C23.367 12.6331 23.367 11.3668 22.586 10.5857ZM12.0002 2.82837L21.1718 11.9999L12.0002 21.1715L2.82861 11.9999L12.0002 2.82837Z" fill="white"/>
</g>
</g>
</svg>
