<svg width="24" height="24" viewBox="0 0 24 24" fill="none" xmlns="http://www.w3.org/2000/svg">
<g id="error">
<path id="Icon" d="M11.9989 17.2033C12.3309 17.2033 12.6096 17.0909 12.8351 16.8663C13.0606 16.6416 13.1734 16.3633 13.1734 16.0313C13.1734 15.6993 13.0611 15.4194 12.8366 15.1918C12.612 14.9643 12.3335 14.8505 12.0014 14.8505C11.6694 14.8505 11.3906 14.9643 11.1651 15.1918C10.9396 15.4194 10.8269 15.6993 10.8269 16.0313C10.8269 16.3633 10.9391 16.6416 11.1636 16.8663C11.3883 17.0909 11.6667 17.2033 11.9989 17.2033ZM10.8626 13.012H13.1376V6.8745H10.8626V13.012ZM12.0001 22.2033C10.585 22.2033 9.25713 21.9356 8.01663 21.4003C6.77596 20.8649 5.69679 20.1385 4.77912 19.221C3.86162 18.3033 3.13521 17.2242 2.59987 15.9835C2.06454 14.743 1.79688 13.4152 1.79688 12C1.79688 10.5848 2.06454 9.257 2.59987 8.0165C3.13521 6.77584 3.86162 5.69667 4.77912 4.779C5.69679 3.8615 6.77596 3.13509 8.01663 2.59975C9.25713 2.06442 10.585 1.79675 12.0001 1.79675C13.4153 1.79675 14.7431 2.06442 15.9836 2.59975C17.2243 3.13509 18.3035 3.8615 19.2211 4.779C20.1386 5.69667 20.865 6.77584 21.4004 8.0165C21.9357 9.257 22.2034 10.5848 22.2034 12C22.2034 13.4152 21.9357 14.743 21.4004 15.9835C20.865 17.2242 20.1386 18.3033 19.2211 19.221C18.3035 20.1385 17.2243 20.8649 15.9836 21.4003C14.7431 21.9356 13.4153 22.2033 12.0001 22.2033ZM12.0001 19.9283C14.2175 19.9283 16.0932 19.1613 17.6274 17.6273C19.1614 16.0931 19.9284 14.2173 19.9284 12C19.9284 9.78267 19.1614 7.90692 17.6274 6.37275C16.0932 4.83875 14.2175 4.07175 12.0001 4.07175C9.78279 4.07175 7.90704 4.83875 6.37288 6.37275C4.83888 7.90692 4.07187 9.78267 4.07187 12C4.07187 14.2173 4.83888 16.0931 6.37288 17.6273C7.90704 19.1613 9.78279 19.9283 12.0001 19.9283Z" fill="#FF5A5A"/>
</g>
</svg>
