<svg width="42" height="59" viewBox="0 0 42 59" fill="none" xmlns="http://www.w3.org/2000/svg">
<path d="M5.20588 59C3.7598 59 2.53122 58.4933 1.52012 57.4799C0.506707 56.4688 0 55.2402 0 53.7941V26.0294C0 24.5833 0.506707 23.3547 1.52012 22.3436C2.53122 21.3302 3.7598 20.8235 5.20588 20.8235H6.94118V13.8824C6.94118 10.0254 8.29123 6.74798 10.9913 4.05018C13.6892 1.35006 16.9665 0 20.8235 0C24.6805 0 27.9579 1.35006 30.6557 4.05018C33.3558 6.74798 34.7059 10.0254 34.7059 13.8824V20.8235H36.4412C37.8872 20.8235 39.1158 21.3302 40.1269 22.3436C41.1403 23.3547 41.647 24.5833 41.647 26.0294V53.7941C41.647 55.2402 41.1403 56.4688 40.1269 57.4799C39.1158 58.4933 37.8872 59 36.4412 59H5.20588ZM5.20588 53.7941H36.4412V26.0294H5.20588V53.7941ZM20.8235 45.1176C22.2696 45.1176 23.4982 44.6109 24.5093 43.5975C25.5227 42.5864 26.0294 41.3578 26.0294 39.9118C26.0294 38.4657 25.5227 37.2371 24.5093 36.226C23.4982 35.2126 22.2696 34.7059 20.8235 34.7059C19.3774 34.7059 18.1489 35.2126 17.1378 36.226C16.1243 37.2371 15.6176 38.4657 15.6176 39.9118C15.6176 41.3578 16.1243 42.5864 17.1378 43.5975C18.1489 44.6109 19.3774 45.1176 20.8235 45.1176ZM12.1471 20.8235H29.5V13.8824C29.5 11.4714 28.6566 9.42265 26.9699 7.73594C25.2832 6.04923 23.2344 5.20588 20.8235 5.20588C18.4126 5.20588 16.3638 6.04923 14.6771 7.73594C12.9904 9.42265 12.1471 11.4714 12.1471 13.8824V20.8235Z" fill="white"/>
</svg>
