<svg width="23" height="32" viewBox="0 0 23 32" fill="none" xmlns="http://www.w3.org/2000/svg">
<path d="M2.82353 32C2.03922 32 1.37286 31.7252 0.824471 31.1755C0.274824 30.6271 0 29.9608 0 29.1765V14.1176C0 13.3333 0.274824 12.667 0.824471 12.1186C1.37286 11.5689 2.03922 11.2941 2.82353 11.2941H3.76471V7.52941C3.76471 5.43749 4.49694 3.65992 5.96141 2.19671C7.42463 0.732235 9.2022 0 11.2941 0C13.386 0 15.1636 0.732235 16.6268 2.19671C18.0913 3.65992 18.8235 5.43749 18.8235 7.52941V11.2941H19.7647C20.549 11.2941 21.2154 11.5689 21.7638 12.1186C22.3134 12.667 22.5882 13.3333 22.5882 14.1176V29.1765C22.5882 29.9608 22.3134 30.6271 21.7638 31.1755C21.2154 31.7252 20.549 32 19.7647 32H2.82353ZM2.82353 29.1765H19.7647V14.1176H2.82353V29.1765ZM11.2941 24.4706C12.0784 24.4706 12.7448 24.1958 13.2932 23.6461C13.8428 23.0977 14.1176 22.4314 14.1176 21.6471C14.1176 20.8627 13.8428 20.1964 13.2932 19.648C12.7448 19.0984 12.0784 18.8235 11.2941 18.8235C10.5098 18.8235 9.84345 19.0984 9.29506 19.648C8.74541 20.1964 8.47059 20.8627 8.47059 21.6471C8.47059 22.4314 8.74541 23.0977 9.29506 23.6461C9.84345 24.1958 10.5098 24.4706 11.2941 24.4706ZM6.58823 11.2941H16V7.52941C16 6.2218 15.5426 5.11059 14.6278 4.19576C13.7129 3.28094 12.6017 2.82353 11.2941 2.82353C9.98651 2.82353 8.87529 3.28094 7.96047 4.19576C7.04565 5.11059 6.58823 6.2218 6.58823 7.52941V11.2941Z" fill="white"/>
</svg>
