<svg width="33" height="32" viewBox="0 0 33 32" fill="none" xmlns="http://www.w3.org/2000/svg">
<g id="Frame">
<path id="Vector" d="M9.01031 28.6666C8.34542 28.6666 7.77742 28.4312 7.30631 27.9603C6.83542 27.4892 6.59998 26.9212 6.59998 26.2563V13.7436C6.59998 13.0787 6.83542 12.5107 7.30631 12.0396C7.77742 11.5687 8.34542 11.3333 9.01031 11.3333H10.6V8.66663C10.6 7.00174 11.1838 5.58551 12.3513 4.41796C13.5189 3.2504 14.9351 2.66663 16.6 2.66663C18.2649 2.66663 19.6811 3.2504 20.8486 4.41796C22.0162 5.58551 22.6 7.00174 22.6 8.66663V11.3333H24.1896C24.8545 11.3333 25.4225 11.5687 25.8936 12.0396C26.3645 12.5107 26.6 13.0787 26.6 13.7436V26.2563C26.6 26.9212 26.3645 27.4892 25.8936 27.9603C25.4225 28.4312 24.8545 28.6666 24.1896 28.6666H9.01031ZM9.01031 26.6666H24.1896C24.3094 26.6666 24.4078 26.6282 24.4846 26.5513C24.5615 26.4744 24.6 26.3761 24.6 26.2563V13.7436C24.6 13.6238 24.5615 13.5255 24.4846 13.4486C24.4078 13.3717 24.3094 13.3333 24.1896 13.3333H9.01031C8.89053 13.3333 8.7922 13.3717 8.71531 13.4486C8.63842 13.5255 8.59998 13.6238 8.59998 13.7436V26.2563C8.59998 26.3761 8.63842 26.4744 8.71531 26.5513C8.7922 26.6282 8.89053 26.6666 9.01031 26.6666ZM12.6 11.3333H20.6V8.66663C20.6 7.55552 20.2111 6.61107 19.4333 5.83329C18.6555 5.05551 17.7111 4.66663 16.6 4.66663C15.4889 4.66663 14.5444 5.05551 13.7666 5.83329C12.9889 6.61107 12.6 7.55552 12.6 8.66663V11.3333Z" fill="white"/>
<path id="Vector_2" d="M16.6 22.3333C17.2477 22.3333 17.7986 22.1064 18.2526 21.6526C18.7064 21.1986 18.9333 20.6477 18.9333 20C18.9333 19.3522 18.7064 18.8013 18.2526 18.3473C17.7986 17.8935 17.2477 17.6666 16.6 17.6666C15.9522 17.6666 15.4013 17.8935 14.9473 18.3473C14.4935 18.8013 14.2666 19.3522 14.2666 20C14.2666 20.6477 14.4935 21.1986 14.9473 21.6526C15.4013 22.1064 15.9522 22.3333 16.6 22.3333Z" fill="white"/>
</g>
</svg>
