<svg width="24" height="24" viewBox="0 0 24 24" fill="none" xmlns="http://www.w3.org/2000/svg">
<path d="M21 21V19H19V5C19 4.45 18.804 3.979 18.412 3.587C18.0207 3.19567 17.55 3 17 3H7C6.45 3 5.979 3.19567 5.587 3.587C5.19567 3.979 5 4.45 5 5V19H3V21H21ZM17 19H7V5H17V19Z" fill="white"/>
<path d="M15.124 13.0581C14.8327 13.3501 14.4787 13.4961 14.062 13.4961C13.6453 13.4961 13.2913 13.3501 13 13.0581C12.708 12.7667 12.562 12.4127 12.562 11.9961C12.562 11.5794 12.708 11.2254 13 10.9341C13.2913 10.6421 13.6453 10.4961 14.062 10.4961C14.4787 10.4961 14.8327 10.6421 15.124 10.9341C15.416 11.2254 15.562 11.5794 15.562 11.9961C15.562 12.4127 15.416 12.7667 15.124 13.0581Z" fill="white"/>
</svg>
