<svg width="22" height="30" viewBox="0 0 22 30" fill="none" xmlns="http://www.w3.org/2000/svg">
<path d="M3.2001 29.866C2.47788 29.866 1.86428 29.613 1.3593 29.1068C0.853165 28.6018 0.600098 27.9882 0.600098 27.266V13.3994C0.600098 12.6771 0.853165 12.0635 1.3593 11.5586C1.86428 11.0524 2.47788 10.7994 3.2001 10.7994H4.06676V7.33269C4.06676 5.40638 4.74103 3.76953 6.08956 2.42215C7.43694 1.07362 9.07379 0.399353 11.0001 0.399353C12.9264 0.399353 14.5633 1.07362 15.9106 2.42215C17.2592 3.76953 17.9334 5.40638 17.9334 7.33269V10.7994H18.8001C19.5223 10.7994 20.1359 11.0524 20.6409 11.5586C21.147 12.0635 21.4001 12.6771 21.4001 13.3994V27.266C21.4001 27.9882 21.147 28.6018 20.6409 29.1068C20.1359 29.613 19.5223 29.866 18.8001 29.866H3.2001ZM3.2001 27.266H18.8001V13.3994H3.2001V27.266ZM11.0001 22.9327C11.7223 22.9327 12.3359 22.6796 12.8409 22.1735C13.347 21.6685 13.6001 21.0549 13.6001 20.3327C13.6001 19.6105 13.347 18.9969 12.8409 18.4919C12.3359 17.9858 11.7223 17.7327 11.0001 17.7327C10.2779 17.7327 9.66428 17.9858 9.1593 18.4919C8.65316 18.9969 8.4001 19.6105 8.4001 20.3327C8.4001 21.0549 8.65316 21.6685 9.1593 22.1735C9.66428 22.6796 10.2779 22.9327 11.0001 22.9327ZM6.66676 10.7994H15.3334V7.33269C15.3334 6.1286 14.9122 5.10535 14.0698 4.26295C13.2274 3.42055 12.2042 2.99935 11.0001 2.99935C9.79601 2.99935 8.77277 3.42055 7.93037 4.26295C7.08796 5.10535 6.66676 6.1286 6.66676 7.33269V10.7994Z" fill="white"/>
</svg>
