<svg width="24" height="24" viewBox="0 0 24 24" fill="none" xmlns="http://www.w3.org/2000/svg">
<path fill-rule="evenodd" clip-rule="evenodd" d="M3 21V19H5V5C5 4.43333 5.19583 3.95833 5.5875 3.575C5.97917 3.19167 6.45 3 7 3H17C17.5667 3 18.0417 3.19167 18.425 3.575C18.8083 3.95833 19 4.43333 19 5V19H21V21H3ZM13 6.875V18L7 19V5L12.2 5.85C12.4333 5.88333 12.625 6 12.775 6.2C12.925 6.4 13 6.625 13 6.875ZM11 13C11.2833 13 11.5208 12.9042 11.7125 12.7125C11.9042 12.5208 12 12.2833 12 12C12 11.7167 11.9042 11.4792 11.7125 11.2875C11.5208 11.0958 11.2833 11 11 11C10.7167 11 10.4792 11.0958 10.2875 11.2875C10.0958 11.4792 10 11.7167 10 12C10 12.2833 10.0958 12.5208 10.2875 12.7125C10.4792 12.9042 10.7167 13 11 13Z" fill="white"/>
</svg>
