<svg width="22" height="30" viewBox="0 0 22 30" fill="none" xmlns="http://www.w3.org/2000/svg">
<path d="M3.20011 10.8011H15.3334V7.3344C15.3334 6.13031 14.9122 5.10706 14.0698 4.26466C13.2274 3.42226 12.2042 3.00106 11.0001 3.00106C9.79602 3.00106 8.77278 3.42226 7.93038 4.26466C7.08798 5.10706 6.66678 6.13031 6.66678 7.3344H4.06678C4.06678 5.40808 4.74105 3.77124 6.08958 2.42386C7.43696 1.07533 9.0738 0.401062 11.0001 0.401062C12.9264 0.401062 14.5633 1.07533 15.9106 2.42386C17.2592 3.77124 17.9334 5.40808 17.9334 7.3344V10.8011H18.8001C19.5223 10.8011 20.1359 11.0541 20.6409 11.5603C21.147 12.0652 21.4001 12.6788 21.4001 13.4011V27.2677C21.4001 27.99 21.147 28.6036 20.6409 29.1085C20.1359 29.6147 19.5223 29.8677 18.8001 29.8677H3.20011C2.47789 29.8677 1.86429 29.6147 1.35931 29.1085C0.85318 28.6036 0.600113 27.99 0.600113 27.2677V13.4011C0.600113 12.6788 0.85318 12.0652 1.35931 11.5603C1.86429 11.0541 2.47789 10.8011 3.20011 10.8011ZM3.20011 27.2677H18.8001V13.4011H3.20011V27.2677ZM11.0001 22.9344C11.7223 22.9344 12.3359 22.6813 12.8409 22.1752C13.347 21.6702 13.6001 21.0566 13.6001 20.3344C13.6001 19.6122 13.347 18.9986 12.8409 18.4936C12.3359 17.9875 11.7223 17.7344 11.0001 17.7344C10.2779 17.7344 9.66429 17.9875 9.15931 18.4936C8.65318 18.9986 8.40011 19.6122 8.40011 20.3344C8.40011 21.0566 8.65318 21.6702 9.15931 22.1752C9.66429 22.6813 10.2779 22.9344 11.0001 22.9344Z" fill="white"/>
</svg>
