<svg width="33" height="32" viewBox="0 0 33 32" fill="none" xmlns="http://www.w3.org/2000/svg">
<g id="Frame">
<path id="Vector" d="M5.9436 26C5.27004 26 4.69993 25.7667 4.23326 25.3C3.7666 24.8333 3.53326 24.2632 3.53326 23.5897V8.41033C3.53326 7.73678 3.7666 7.16667 4.23326 6.7C4.69993 6.23333 5.27004 6 5.9436 6H26.4563C27.1298 6 27.6999 6.23333 28.1666 6.7C28.6333 7.16667 28.8666 7.73678 28.8666 8.41033V23.5897C28.8666 24.2632 28.6333 24.8333 28.1666 25.3C27.6999 25.7667 27.1298 26 26.4563 26H5.9436ZM5.9436 24H26.4563C26.5589 24 26.6529 23.9572 26.7383 23.8717C26.8238 23.7863 26.8666 23.6923 26.8666 23.5897V8.41033C26.8666 8.30767 26.8238 8.21367 26.7383 8.12833C26.6529 8.04278 26.5589 8 26.4563 8H5.9436C5.84093 8 5.74693 8.04278 5.6616 8.12833C5.57604 8.21367 5.53326 8.30767 5.53326 8.41033V23.5897C5.53326 23.6923 5.57604 23.7863 5.6616 23.8717C5.74693 23.9572 5.84093 24 5.9436 24Z" fill="white"/>
<path id="Vector_2" d="M18.7896 16.846H24.8406V14.846H18.7896V16.846ZM18.7896 13H24.8406V11H18.7896V13ZM7.19995 20.7433H16.9433V20.2667C16.9433 19.3778 16.5035 18.6794 15.624 18.1717C14.7446 17.6639 13.5605 17.41 12.0716 17.41C10.5827 17.41 9.39851 17.6639 8.51895 18.1717C7.63962 18.6794 7.19995 19.3778 7.19995 20.2667V20.7433ZM12.0716 15.6667C12.7194 15.6667 13.2702 15.4397 13.724 14.9857C14.178 14.5319 14.405 13.9811 14.405 13.3333C14.405 12.6853 14.178 12.1344 13.724 11.6807C13.2702 11.2269 12.7194 11 12.0716 11C11.4238 11 10.873 11.2269 10.419 11.6807C9.96517 12.1344 9.73829 12.6853 9.73829 13.3333C9.73829 13.9811 9.96517 14.5319 10.419 14.9857C10.873 15.4397 11.4238 15.6667 12.0716 15.6667Z" fill="#7EE2FB"/>
</g>
</svg>
