<svg width="33" height="32" viewBox="0 0 33 32" fill="none" xmlns="http://www.w3.org/2000/svg">
<g id="Frame">
<path id="Vector" d="M5.94366 26C5.2701 26 4.69999 25.7667 4.23333 25.3C3.76666 24.8333 3.53333 24.2632 3.53333 23.5897V8.41033C3.53333 7.73678 3.76666 7.16667 4.23333 6.7C4.69999 6.23333 5.2701 6 5.94366 6H26.4563C27.1299 6 27.7 6.23333 28.1667 6.7C28.6333 7.16667 28.8667 7.73678 28.8667 8.41033V23.5897C28.8667 24.2632 28.6333 24.8333 28.1667 25.3C27.7 25.7667 27.1299 26 26.4563 26H5.94366ZM5.94366 24H26.4563C26.559 24 26.653 23.9572 26.7383 23.8717C26.8239 23.7863 26.8667 23.6923 26.8667 23.5897V8.41033C26.8667 8.30767 26.8239 8.21367 26.7383 8.12833C26.653 8.04278 26.559 8 26.4563 8H5.94366C5.84099 8 5.74699 8.04278 5.66166 8.12833C5.5761 8.21367 5.53333 8.30767 5.53333 8.41033V23.5897C5.53333 23.6923 5.5761 23.7863 5.66166 23.8717C5.74699 23.9572 5.84099 24 5.94366 24Z" fill="white"/>
<path id="Vector_2" d="M18.7897 16.846H24.8406V14.846H18.7897V16.846ZM18.7897 13H24.8406V11H18.7897V13ZM7.19998 20.7433H16.9433V20.2667C16.9433 19.3778 16.5035 18.6794 15.624 18.1717C14.7446 17.6639 13.5605 17.41 12.0716 17.41C10.5828 17.41 9.39854 17.6639 8.51898 18.1717C7.63965 18.6794 7.19998 19.3778 7.19998 20.2667V20.7433ZM12.0716 15.6667C12.7194 15.6667 13.2702 15.4397 13.724 14.9857C14.178 14.5319 14.405 13.9811 14.405 13.3333C14.405 12.6853 14.178 12.1344 13.724 11.6807C13.2702 11.2269 12.7194 11 12.0716 11C11.4239 11 10.873 11.2269 10.419 11.6807C9.9652 12.1344 9.73832 12.6853 9.73832 13.3333C9.73832 13.9811 9.9652 14.5319 10.419 14.9857C10.873 15.4397 11.4239 15.6667 12.0716 15.6667Z" fill="white"/>
</g>
</svg>
